Coordinates
version=1
nRows=19
nColumns=33
inDegrees=yes

Units are S.I. units (second, meters, Newtons, ...)
Angles are in degrees.

endheader
time	ground_thorax_rot_x	ground_thorax_rot_y	ground_thorax_rot_z	ground_thorax_tx	ground_thorax_ty	ground_thorax_tz	clav_prot_r	clav_elev_r	scapula_abduction_r	scapula_elevation_r	scapula_upward_rot_r	scapula_winging_r	shoulder_elv_r	plane_of_elev_r	axial_rot_r	elbow_flexion_r	pro_sup_r	wrist_flex_r	wrist_dev_r	clav_prot_l	clav_elev_l	scapula_abduction_l	scapula_elevation_l	scapula_upward_rot_l	scapula_winging_l	shoulder_elv_l	plane_of_elev_l	axial_rot_l	elbow_flexion_l	pro_sup_l	wrist_flex_l	wrist_dev_l
      3.70000000	     37.43627796	      0.03828568	      2.43703387	    -95.37804749	    880.18643810	     -3.47920732	     -5.81193523	     39.42534688	     45.00000000	     45.00000000	     45.00000000	    963.68884530	  -2815.04443766	     18.86624754	   -179.99999979	   1446.83809703	    -67.71304674	     22.61453594	     10.75873074	      9.35772142	    -45.00000000	    -45.00000000	     45.00000000	    -17.78755596	  -3148.09737487	  -3163.83648714	     18.97744317	    -49.51361874	      9.61053970	      5.79841941	     12.13552722	    -20.56594144
      3.71000000	     37.28532704	      0.05132658	      2.51212707	    -91.13939005	    876.86670171	     -3.03391129	     -5.92714412	     39.47228527	     45.00000000	     45.00000000	     45.00000000	    963.57618502	  -2815.54216148	     18.75232572	   -179.99999979	   1446.94919756	    -71.07063823	     22.32667779	     11.19159913	      9.21983097	    -45.00000000	    -45.00000000	     45.00000000	    -17.68305708	  -3148.62547978	  -3164.25292914	     19.10097812	    -48.83696026	      9.43539745	      4.86175143	     12.45993466	    -20.31409690
      3.72000000	     37.16862974	      0.01984476	      2.53735498	    -86.86980457	    873.36366120	     -2.60529111	     -6.19079421	     39.48043993	     45.00000000	     45.00000000	     45.00000000	    963.41323375	  -2816.03794522	     18.70940386	   -179.99999979	   1447.11975527	    -74.77838083	     22.00775658	     11.66063483	      9.00795680	    -45.00000000	    -45.00000000	     45.00000000	    -17.32931875	  -3149.09727383	  -3164.80547573	     19.23995996	    -48.14407536	      9.19245025	      4.09474369	     12.72613960	    -20.04183073
      3.73000000	     37.00445960	      0.14924608	      2.72207727	    -82.58140137	    869.71759975	     -2.19502513	     -6.15724418	     39.47637167	     45.00000000	     45.00000000	     45.00000000	    963.24986711	  -2816.46865537	     18.50371355	   -179.99999979	   1447.27004487	    -78.32912406	     21.53940056	     12.10983586	      8.98111887	    -45.00000000	    -45.00000000	     45.00000000	    -17.43958721	  -3149.68378092	  -3165.19116454	     19.34046231	    -47.35494055	      9.03468165	      3.54271442	     12.95130820	    -19.80112269
      3.74000000	     36.88788843	      0.09516825	      2.73828050	    -78.27970954	    865.96087953	     -1.80409830	     -6.41734247	     39.51820979	     45.00000000	     45.00000000	     45.00000000	    963.08906549	  -2817.01750138	     18.40174493	   -179.99999979	   1447.52236935	    -82.28782055	     21.13594018	     12.56463757	      8.80144472	    -45.00000000	    -45.00000000	     45.00000000	    -17.26906310	  -3150.19975524	  -3165.71551412	     19.52020760	    -46.51162176	      8.79092701	      3.16941285	     13.20717147	    -19.54299592
      3.75000000	     36.76477788	      0.18278319	      2.91585868	    -73.97845875	    862.12969632	     -1.43416447	     -6.41341181	     39.56113019	     45.00000000	     45.00000000	     45.00000000	    962.91258647	  -2817.47451040	     18.18073123	   -179.99999979	   1447.67540225	    -86.08137502	     20.62495334	     12.95384810	      8.75438242	    -45.00000000	    -45.00000000	     45.00000000	    -17.40459229	  -3150.75696866	  -3166.13670454	     19.65816900	    -45.62359679	      8.60710982	      2.94285275	     13.42876059	    -19.31447384
      3.76000000	     36.70050828	      0.11051327	      2.92729819	    -69.68775203	    858.25441333	     -1.08535679	     -6.71008660	     39.58840740	     45.00000000	     45.00000000	     45.00000000	    962.69548680	  -2818.06817221	     18.14341914	   -179.99999979	   1447.96008001	    -90.10464420	     20.16751729	     13.35556011	      8.58062942	    -45.00000000	    -45.00000000	     45.00000000	    -17.26396231	  -3151.29217300	  -3166.75096345	     19.88032761	    -44.56598332	      8.28946480	      2.88718134	     13.69343187	    -19.05219834
      3.77000000	     36.58091354	      0.24968553	      3.15874949	    -65.42026980	    854.36486396	     -0.75607460	     -6.37367901	     39.61670086	     45.00000000	     45.00000000	     45.00000000	    962.62082706	  -2818.49289394	     17.74202281	   -179.99999979	   1448.04154341	    -93.32903992	     19.57866698	     13.59780613	      8.72062147	    -45.00000000	    -45.00000000	     45.00000000	    -18.01103917	  -3151.88889453	  -3166.98158736	     20.16594326	    -43.81208006	      8.15678406	      2.96663851	     13.86744504	    -18.86188857
      3.78000000	     36.50647247	      0.24594519	      3.25400520	    -61.17952602	    850.47991054	     -0.44089407	     -6.75172267	     39.64770670	     45.00000000	     45.00000000	     45.00000000	    962.29235726	  -2819.06000946	     17.68521799	   -179.99999979	   1448.28799757	    -96.81479642	     19.11935842	     13.87098384	      8.47342001	    -45.00000000	    -45.00000000	     45.00000000	    -17.70545554	  -3152.46190046	  -3167.52811842	     20.26419543	    -42.46899341	      7.82022276	      3.26443040	     14.11268307	    -18.63114419
      3.79000000	     36.45030904	      0.20877591	      3.31432711	    -56.97250057	    846.61648029	     -0.13280040	     -6.96677987	     39.66740475	     45.00000000	     45.00000000	     45.00000000	    962.05104432	  -2819.67467039	     17.55845013	   -179.99999979	   1448.57279015	   -100.23178267	     18.55454692	     14.11388598	      8.36132076	    -45.00000000	    -45.00000000	     45.00000000	    -17.69509742	  -3153.03471460	  -3168.00410431	     20.47346904	    -41.39558876	      7.51574031	      3.80897334	     14.28350367	    -18.43763382
      3.80000000	     36.44444658	      0.15519051	      3.38261271	    -52.80209017	    842.78294520	      0.17670973	     -7.23703479	     39.79859418	     45.00000000	     45.00000000	     45.00000000	    961.80487479	  -2820.28829076	     17.44114954	   -179.99999979	   1448.86399990	   -103.99965593	     18.05019169	     14.34238139	      8.12874855	    -45.00000000	    -45.00000000	     45.00000000	    -17.64458878	  -3153.56790901	  -3168.56510878	     20.68642259	    -40.36281339	      7.17448545	      4.72748375	     14.36451055	    -18.27452530
      3.81000000	     36.51056985	      0.49484976	      3.91635513	    -48.66676319	    838.97754797	      0.49324568	     -5.81282577	     40.09157856	     45.00000000	     45.00000000	     45.00000000	    962.13946787	  -2820.27510182	     16.85251454	   -179.99999979	   1449.11219219	   -106.57728295	     17.88457374	     14.53563651	      8.55919690	    -45.00000000	    -45.00000000	     45.00000000	    -18.84261796	  -3153.89020567	  -3169.14762326	     21.34454858	    -40.05874797	      6.76814519	      5.58896222	     14.28848639	    -18.13796702
      3.82000000	     36.15228306	      0.21724358	      3.78893093	    -44.58995359	    835.22273897	      0.82268762	     -7.03150855	     39.34431563	     45.00000000	     44.20083459	     45.00000000	    961.77551610	  -2821.07436887	     17.12503345	   -179.99999979	   1449.11752754	   -109.58435795	     16.86636233	     14.45661793	      7.98604859	    -45.00000000	    -45.00000000	     45.00000000	    -17.91184239	  -3154.57628520	  -3169.08258097	     21.01174803	    -38.66440404	      6.67631216	      6.73903256	     14.44421913	    -18.04351831
      3.83000000	     35.95811384	      0.14690613	      3.86122979	    -40.57144705	    831.52198208	      1.17137225	     -7.14418614	     38.93861634	     45.00000000	     43.48930805	     45.00000000	    961.92469935	  -2821.37583195	     17.08873166	   -179.99999979	   1449.29393531	   -112.59839610	     16.31094399	     14.47304428	      7.79116800	    -45.00000000	    -45.00000000	     45.00000000	    -17.73845020	  -3155.03289913	  -3169.34512210	     21.16799212	    -37.84279607	      6.38981229	      8.13830532	     14.46162671	    -17.95908162
      3.84000000	     35.85679109	      0.17335084	      4.05381638	    -36.63451068	    827.90667522	      1.54448426	     -6.76920290	     38.49579783	     45.00000000	     42.91027300	     45.00000000	    962.29811670	  -2821.56650955	     16.77279313	   -179.99999979	   1449.41501201	   -115.25555909	     15.68339190	     14.38646059	      7.72549825	    -45.00000000	    -45.00000000	     45.00000000	    -17.93009730	  -3155.49486157	  -3169.55703558	     21.27835589	    -37.31612900	      6.22997811	      9.46027236	     14.46222146	    -17.91562982
      3.85000000	     35.67484406	     -0.04007988	      4.02829238	    -32.80216773	    824.40929830	      1.94162052	     -7.14821323	     38.01266273	     45.00000000	     42.22842065	     45.00000000	    962.23000345	  -2822.07714847	     16.89188433	   -179.99999979	   1449.61592724	   -118.07317905	     15.25989602	     14.37442440	      7.45919410	    -45.00000000	    -45.00000000	     45.00000000	    -17.47995306	  -3155.85677647	  -3169.81877006	     21.38314904	    -36.61617533	      5.90112182	     10.83160213	     14.40062922	    -17.83312507
      3.86000000	     35.56205289	     -0.11907577	      4.11411362	    -29.08884187	    821.06845041	      2.36317716	     -7.20742027	     37.58256517	     45.00000000	     41.55355774	     45.00000000	    962.45944800	  -2822.33972987	     16.75876006	   -179.99999979	   1449.77926970	   -120.77216557	     14.72840502	     14.24398111	      7.31323922	    -45.00000000	    -45.00000000	     45.00000000	    -17.37863391	  -3156.25516612	  -3170.03701032	     21.45505940	    -36.14492079	      5.64493873	     12.10548941	     14.35225543	    -17.77131274
      3.87000000	     35.52295610	     -0.13508412	      4.23392214	    -25.50609125	    817.92164637	      2.80331597	     -6.91612072	     37.15245041	     45.00000000	     40.87089963	     45.00000000	    962.90506832	  -2822.40672008	     16.55376266	   -179.99999979	   1449.96213285	   -123.13565766	     14.09479731	     14.00608522	      7.24291516	    -45.00000000	    -45.00000000	     45.00000000	    -17.46790056	  -3156.73982718	  -3170.16726643	     21.47186332	    -35.93538664	      5.40696910	     13.16751361	     14.30341028	    -17.70616575
      3.88000000	     35.42682244	     -0.19944838	      4.34549290	    -22.05932964	    815.00601253	      3.25306474	     -6.88980222	     36.74058383	     45.00000000	     40.17743430	     45.00000000	    963.18276558	  -2822.57701379	     16.40318768	   -179.99999979	   1450.12930492	   -125.38163397	     13.60583462	     13.77117595	      7.12210457	    -45.00000000	    -45.00000000	     45.00000000	    -17.34613193	  -3157.11195356	  -3170.29376806	     21.42389237	    -35.67533617	      5.15891642	     14.08071112	     14.18693436	    -17.63069060
